REM DIRINDEX 1\2\5,1\2\6,1\2\7,1\2\8,1\3\9,1\3\10,1\3\11,1\4\12,1\4\13,1\4\14,1\4\15,1\4\16
REM DIRNAME folder01,folder02,folder03,folder04,folder05,folder06,folder07,folder08,folder09,folder10,folder11,folder12,folder13,folder14,folder15,folder16
TITLE ""
FILE "1200_2_sec02_0370_0384.mp3" MP3
  TRACK 01 AUDIO
    TITLE "0:"
    INDEX 01 00:00:00
  TRACK 02 AUDIO
    TITLE "10:cjc034_00759"
    INDEX 01 00:00:15
  TRACK 03 AUDIO
    TITLE "0:"
    INDEX 01 00:01:24
  TRACK 04 AUDIO
    TITLE "9:cjc034_00760"
    INDEX 01 00:01:30
  TRACK 05 AUDIO
    TITLE "0:"
    INDEX 01 00:02:57
  TRACK 06 AUDIO
    TITLE "10:cjc034_00761"
    INDEX 01 00:03:37
  TRACK 07 AUDIO
    TITLE "0:"
    INDEX 01 00:04:68
  TRACK 08 AUDIO
    TITLE "9:cjc034_00762"
    INDEX 01 00:04:70
  TRACK 09 AUDIO
    TITLE "0:"
    INDEX 01 00:06:24
  TRACK 10 AUDIO
    TITLE "10:cjc034_00763"
    INDEX 01 00:07:05
  TRACK 11 AUDIO
    TITLE "0:"
    INDEX 01 00:08:21
  TRACK 12 AUDIO
    TITLE "9:cjc034_00764"
    INDEX 01 00:08:30
  TRACK 13 AUDIO
    TITLE "0:"
    INDEX 01 00:09:45
  TRACK 14 AUDIO
    TITLE "10:cjc034_00765"
    INDEX 01 00:10:29
  TRACK 15 AUDIO
    TITLE "0:"
    INDEX 01 00:11:35
  TRACK 16 AUDIO
    TITLE "9:cjc034_00766"
    INDEX 01 00:11:44
  TRACK 17 AUDIO
    TITLE "0:"
    INDEX 01 00:12:56
  TRACK 18 AUDIO
    TITLE "10:cjc034_00767"
    INDEX 01 00:13:35
  TRACK 19 AUDIO
    TITLE "0:"
    INDEX 01 00:14:62
  TRACK 20 AUDIO
    TITLE "9:cjc034_00768"
    INDEX 01 00:14:68
  TRACK 21 AUDIO
    TITLE "0:"
    INDEX 01 00:16:12
  TRACK 22 AUDIO
    TITLE "10:cjc034_00769"
    INDEX 01 00:16:69
  TRACK 23 AUDIO
    TITLE "0:"
    INDEX 01 00:18:27
  TRACK 24 AUDIO
    TITLE "9:cjc034_00770"
    INDEX 01 00:18:31
  TRACK 25 AUDIO
    TITLE "0:"
    INDEX 01 00:19:44
  TRACK 26 AUDIO
    TITLE "10:cjc034_00771"
    INDEX 01 00:20:26
  TRACK 27 AUDIO
    TITLE "0:"
    INDEX 01 00:21:47
  TRACK 28 AUDIO
    TITLE "9:cjc034_00772"
    INDEX 01 00:21:49
  TRACK 29 AUDIO
    TITLE "0:"
    INDEX 01 00:22:44
  TRACK 30 AUDIO
    TITLE "10:cjc034_00773"
    INDEX 01 00:23:28
  TRACK 31 AUDIO
    TITLE "0:"
    INDEX 01 00:24:53
  TRACK 32 AUDIO
    TITLE "9:cjc034_00774"
    INDEX 01 00:24:57
  TRACK 33 AUDIO
    TITLE "0:"
    INDEX 01 00:25:68
  TRACK 34 AUDIO
    TITLE "10:cjc034_00775"
    INDEX 01 00:26:52
  TRACK 35 AUDIO
    TITLE "0:"
    INDEX 01 00:27:59
  TRACK 36 AUDIO
    TITLE "9:cjc034_00776"
    INDEX 01 00:27:67
  TRACK 37 AUDIO
    TITLE "0:"
    INDEX 01 00:29:11
  TRACK 38 AUDIO
    TITLE "10:cjc034_00777"
    INDEX 01 00:29:72
  TRACK 39 AUDIO
    TITLE "0:"
    INDEX 01 00:31:27
  TRACK 40 AUDIO
    TITLE "9:cjc034_00778"
    INDEX 01 00:31:31
  TRACK 41 AUDIO
    TITLE "0:"
    INDEX 01 00:32:47
  TRACK 42 AUDIO
    TITLE "10:cjc034_00779"
    INDEX 01 00:33:30
  TRACK 43 AUDIO
    TITLE "0:"
    INDEX 01 00:35:29
  TRACK 44 AUDIO
    TITLE "9:cjc034_00780"
    INDEX 01 00:35:39
  TRACK 45 AUDIO
    TITLE "0:"
    INDEX 01 00:36:36
  TRACK 46 AUDIO
    TITLE "10:cjc034_00781"
    INDEX 01 00:37:18
  TRACK 47 AUDIO
    TITLE "0:"
    INDEX 01 00:38:35
  TRACK 48 AUDIO
    TITLE "9:cjc034_00782"
    INDEX 01 00:38:43
  TRACK 49 AUDIO
    TITLE "0:"
    INDEX 01 00:39:39
  TRACK 50 AUDIO
    TITLE "10:cjc034_00783"
    INDEX 01 00:40:21
  TRACK 51 AUDIO
    TITLE "0:"
    INDEX 01 00:42:27
  TRACK 52 AUDIO
    TITLE "9:cjc034_00784"
    INDEX 01 00:42:31
  TRACK 53 AUDIO
    TITLE "0:"
    INDEX 01 00:43:33
  TRACK 54 AUDIO
    TITLE "10:cjc034_00785"
    INDEX 01 00:44:16
  TRACK 55 AUDIO
    TITLE "0:"
    INDEX 01 00:45:39
  TRACK 56 AUDIO
    TITLE "9:cjc034_00786"
    INDEX 01 00:45:45
  TRACK 57 AUDIO
    TITLE "0:"
    INDEX 01 00:46:47
  TRACK 58 AUDIO
    TITLE "10:cjc034_00787"
    INDEX 01 00:47:32
  TRACK 59 AUDIO
    TITLE "0:"
    INDEX 01 00:48:49
  TRACK 60 AUDIO
    TITLE "9:cjc034_00788"
    INDEX 01 00:48:59
  TRACK 61 AUDIO
    TITLE "0:"
    INDEX 01 00:49:69
